<svg width="64" height="64" viewBox="0 0 64 64" fill="none" xmlns="http://www.w3.org/2000/svg">
  <rect width="64" height="64" rx="16" fill="#0EA5E9"/>
  <path d="M32 16C25.3726 16 20 21.3726 20 28C20 39 32 48 32 48C32 48 44 39 44 28C44 21.3726 38.6274 16 32 16Z" fill="white"/>
  <path d="M32 36C36.4183 36 40 32.4183 40 28C40 23.5817 36.4183 20 32 20C27.5817 20 24 23.5817 24 28C24 32.4183 27.5817 36 32 36Z" fill="#0EA5E9"/>
  <path d="M32 32C34.2091 32 36 30.2091 36 28C36 25.7909 34.2091 24 32 24C29.7909 24 28 25.7909 28 28C28 30.2091 29.7909 32 32 32Z" fill="white"/>
</svg>